<svg width="27" height="27" viewBox="0 0 27 27" fill="none" xmlns="http://www.w3.org/2000/svg">
<path d="M15.049 0.088C14.936 0.075 14.822 0.064 14.709 0.053C14.595 0.043 14.481 0.034 14.366 0.027C14.309 0.023 14.251 0.02 14.194 0.017C14.079 0.011 13.964 0.007 13.848 0.004C13.732 0.001 13.616 0 13.5 0C13.384 0 13.267 0.001 13.152 0.004C13.036 0.007 12.921 0.011 12.806 0.017C12.403 0.037 12.005 0.075 11.613 0.13C5.666 0.963 0.962 5.667 0.13 11.612C0.075 12.005 0.037 12.403 0.017 12.805C0.011 12.92 0.007 13.035 0.004 13.151C0.001 13.267 0 13.383 0 13.499C0 13.732 0.006 13.964 0.018 14.194C0.024 14.309 0.031 14.424 0.04 14.538C0.057 14.767 0.08 14.993 0.109 15.219C0.13 15.388 0.155 15.556 0.183 15.723C0.192 15.779 0.202 15.834 0.212 15.89C0.261 16.167 0.319 16.441 0.386 16.712C0.399 16.766 0.413 16.82 0.427 16.874C1.922 22.697 7.208 27 13.499 27C20.955 27 26.999 20.956 26.999 13.5C26.999 6.568 21.775 0.857 15.049 0.088ZM21.971 5.028C23.072 6.129 23.936 7.41 24.539 8.837C25.163 10.313 25.48 11.882 25.48 13.5C25.48 15.118 25.163 16.687 24.539 18.163C23.936 19.59 23.072 20.871 21.971 21.972C21.293 22.65 20.546 23.238 19.738 23.731C20.223 22.91 20.36 22.001 20.134 21.046C19.757 19.45 18.374 18.41 16.943 17.746C17.504 17.016 18.005 16.295 18.445 15.571C19.944 13.074 20.398 11.009 19.803 9.414C19.675 9.05 19.492 8.711 19.254 8.397C19.152 8.263 19.043 8.136 18.929 8.02C18.407 7.487 17.774 7.151 17.036 7.012C16.442 6.889 15.782 6.893 15.059 7.024C13.658 7.279 12.291 7.976 11.389 8.517C10.666 8.957 9.945 9.458 9.216 10.018C8.551 8.601 7.516 7.241 5.935 6.867C4.989 6.645 4.088 6.778 3.273 7.252C3.765 6.448 4.351 5.704 5.027 5.028C6.128 3.927 7.409 3.063 8.836 2.459C10.312 1.835 11.881 1.518 13.499 1.518C15.117 1.518 16.686 1.835 18.162 2.459C19.589 3.063 20.87 3.927 21.971 5.028ZM5.532 15.351C6.572 14.332 7.555 13.408 8.506 12.583C8.528 12.666 8.55 12.75 8.571 12.835C8.813 13.828 8.994 14.925 9.122 16.188C8.899 16.175 8.672 16.163 8.44 16.152C7.575 15.669 6.585 15.381 5.532 15.351ZM12.183 9.831C13.462 9.064 14.59 8.613 15.536 8.49C16.35 8.384 17.158 8.58 17.698 9.015C18.587 9.73 18.536 10.941 18.473 11.428C18.35 12.374 17.899 13.502 17.133 14.778C16.651 15.57 16.087 16.363 15.445 17.174C15.119 17.072 14.809 16.988 14.531 16.921C13.404 16.647 12.141 16.445 10.673 16.307C10.536 14.849 10.334 13.594 10.061 12.473C9.99 12.182 9.902 11.857 9.794 11.515C10.603 10.873 11.395 10.311 12.183 9.831ZM14.373 18.463C13.572 19.385 12.678 20.339 11.695 21.344C11.636 20.303 11.326 19.329 10.824 18.48C10.814 18.268 10.803 18.061 10.791 17.856C12.064 17.984 13.167 18.166 14.164 18.409C14.235 18.427 14.304 18.445 14.373 18.463ZM5.027 8.343C6.09 8.298 6.866 9.151 7.15 9.519C7.457 9.918 7.736 10.418 7.983 11.013C6.449 12.304 4.852 13.843 3.095 15.612C3.011 15.695 2.927 15.779 2.844 15.861C2.703 15.921 2.564 15.986 2.428 16.056C2.235 16.156 2.047 16.266 1.866 16.385C1.634 15.448 1.517 14.482 1.517 13.498C1.517 13.344 1.52 13.191 1.526 13.038C1.542 12.97 1.558 12.903 1.574 12.836C1.936 11.389 2.414 10.273 2.996 9.517C3.54 8.813 4.299 8.374 5.027 8.343ZM5.348 16.995C7.945 16.995 10.059 19.108 10.059 21.706C10.059 22.78 9.702 23.798 9.045 24.626C8.975 24.598 8.905 24.569 8.836 24.54C7.409 23.937 6.128 23.073 5.027 21.972C3.926 20.871 3.062 19.59 2.459 18.163C2.44 18.119 2.422 18.075 2.404 18.031C3.233 17.365 4.267 16.995 5.348 16.995ZM11.314 23.902C11.326 23.89 11.337 23.879 11.349 23.867C13.118 22.11 14.656 20.513 15.947 18.981C16.561 19.233 17.075 19.517 17.483 19.831C17.852 20.115 18.704 20.89 18.659 21.954C18.628 22.682 18.189 23.442 17.483 23.985C16.727 24.567 15.61 25.045 14.166 25.407C14.07 25.43 13.973 25.453 13.875 25.475C13.749 25.479 13.624 25.481 13.497 25.481C12.541 25.481 11.602 25.37 10.689 25.151C10.945 24.758 11.154 24.339 11.314 23.902Z" fill="#00C4CC"/>
</svg>
